<?xml version="1.0" standalone="no"?>
<!DOCTYPE svg PUBLIC "-//W3C//DTD SVG 20010904//EN"
 "http://www.w3.org/TR/2001/REC-SVG-20010904/DTD/svg10.dtd">
<svg version="1.0" xmlns="http://www.w3.org/2000/svg"
 width="800.000000pt" height="800.000000pt" viewBox="0 0 800.000000 800.000000"
 preserveAspectRatio="xMidYMid meet">
<metadata>
Created by potrace 1.11, written by Peter Selinger 2001-2013
</metadata>
<g transform="translate(0.000000,800.000000) scale(0.100000,-0.100000)"
fill="#000000" stroke="none">
<path d="M2019 6406 c-152 -32 -278 -105 -410 -236 -131 -130 -184 -257 -196
-472 -14 -250 65 -527 188 -662 36 -39 74 -67 127 -93 l76 -38 130 0 c108 0
144 4 204 23 64 20 75 27 99 65 98 153 142 215 229 316 142 166 300 296 537
444 l27 18 -26 52 c-73 142 -195 294 -316 392 -91 73 -246 154 -343 180 -86
22 -246 28 -326 11z"/>
<path d="M5810 6413 c-297 -50 -560 -257 -737 -581 -25 -46 -44 -85 -42 -87 2
-2 45 -30 94 -62 239 -158 463 -386 615 -626 46 -73 68 -89 180 -126 145 -47
314 -44 424 8 130 63 228 207 282 416 37 143 44 352 16 486 -32 153 -67 217
-186 334 -136 134 -246 197 -404 230 -63 14 -185 18 -242 8z"/>
<path d="M3252 4640 c-63 -28 -144 -110 -237 -240 -93 -128 -142 -178 -261
-268 -102 -77 -162 -143 -201 -224 -42 -85 -56 -157 -52 -259 3 -71 9 -95 37
-151 38 -78 85 -121 180 -169 62 -31 74 -34 162 -34 80 0 103 4 143 24 60 29
132 101 176 178 127 217 188 301 292 404 111 111 136 146 163 238 43 147 -9
339 -121 441 -85 78 -192 101 -281 60z m88 -400 c24 -24 25 -43 4 -64 -18 -19
-55 -21 -72 -4 -19 19 -14 55 10 72 29 20 34 20 58 -4z"/>
<path d="M4573 4641 c-65 -30 -102 -61 -144 -125 -129 -193 -98 -451 71 -589
91 -73 182 -196 310 -417 55 -94 124 -164 196 -197 48 -22 66 -25 137 -21 70
2 94 9 159 40 141 67 208 165 216 313 5 101 -10 176 -53 263 -45 88 -90 140
-189 214 -118 89 -189 160 -269 273 -140 196 -227 265 -336 265 -33 0 -73 -8
-98 -19z m68 -413 c23 -42 -45 -90 -79 -56 -19 19 -14 55 9 71 25 18 56 11 70
-15z"/>
<path d="M3600 3081 c-108 -35 -170 -118 -170 -228 0 -58 18 -90 81 -147 99
-89 323 -175 457 -176 l32 0 0 -113 c0 -105 -2 -115 -22 -135 -34 -31 -76 -44
-146 -44 -76 -1 -159 37 -239 107 -29 26 -53 42 -53 37 0 -5 25 -36 55 -70 69
-75 139 -112 230 -119 51 -5 66 -10 70 -24 3 -10 20 -30 36 -44 56 -46 168
-25 196 38 10 21 20 25 75 29 76 6 152 42 208 98 37 37 78 100 64 100 -3 0
-27 -19 -52 -41 -104 -92 -212 -131 -302 -109 -27 6 -60 22 -74 35 -25 23 -26
29 -26 140 l0 115 33 0 c75 0 221 40 313 85 116 56 208 140 220 199 19 103
-43 208 -144 246 -50 19 -71 21 -172 17 -63 -2 -147 -12 -186 -22 -70 -18 -72
-18 -160 5 -94 24 -279 36 -324 21z"/>
<path d="M2411 2505 c-212 -252 -390 -549 -532 -886 -115 -273 -256 -762 -229
-794 43 -52 580 -380 595 -363 1 2 18 35 38 73 66 132 185 277 322 393 274
231 634 384 1050 448 146 23 542 26 670 6 313 -50 542 -121 764 -238 288 -152
530 -381 652 -618 19 -36 36 -66 39 -66 34 0 553 320 589 363 10 13 7 39 -19
149 -149 621 -430 1185 -793 1593 l-36 40 -31 -37 c-51 -61 -248 -225 -350
-293 -193 -126 -396 -218 -606 -274 -63 -16 -141 -46 -184 -69 -230 -124 -502
-118 -712 14 -21 14 -80 36 -131 49 -359 93 -670 269 -938 532 l-76 75 -82
-97z"/>
</g>
</svg>
